<?xml version="1.0" encoding="UTF-8"?>
<svg id="katman_1" xmlns="http://www.w3.org/2000/svg" xmlns:svg="http://www.w3.org/2000/svg" xmlns:sodipodi="http://sodipodi.sourceforge.net/DTD/sodipodi-0.dtd" xmlns:rdf="http://www.w3.org/1999/02/22-rdf-syntax-ns#" xmlns:inkscape="http://www.inkscape.org/namespaces/inkscape" xmlns:dc="http://purl.org/dc/elements/1.1/" xmlns:cc="http://creativecommons.org/ns#" version="1.1" viewBox="0 0 63.99 60.67">
  <!-- Generator: Adobe Illustrator 30.5.1, SVG Export Plug-In . SVG Version: 2.1.4 Build 3)  -->
  <defs>
    <style>
      .st0 {
        fill: #fff;
      }
    </style>
  </defs>
  <g id="svg50" inkscape:version="0.92.4 (5da689c313, 2019-01-14)" sodipodi:docname="rclone-icon.svg">
    <sodipodi:namedview id="namedview52" bordercolor="#666666" borderopacity="1" gridtolerance="10" guidetolerance="10" inkscape:current-layer="svg50" inkscape:cx="-84.425288" inkscape:cy="26.5" inkscape:pageopacity="0" inkscape:pageshadow="2" inkscape:window-height="807" inkscape:window-maximized="0" inkscape:window-width="1531" inkscape:window-x="70" inkscape:window-y="27" inkscape:zoom="1.539823" objecttolerance="10" pagecolor="#ffffff" showgrid="false" units="px"/>
    <path id="path7" class="st0" d="M61.37,31.32c-2.02-3.51-4.97-6.15-8.35-7.8-.43,2.31-1.25,4.59-2.49,6.74l-1.96,3.4c1.3.72,2.44,1.79,3.24,3.18,2.35,4.07.96,9.29-3.12,11.64-4.07,2.35-9.29.96-11.64-3.12l-3.95-6.83h-6.38l-3.19,5.52,3.95,6.83c5.4,9.36,17.37,12.56,26.73,7.16s12.56-17.37,7.16-26.72" inkscape:connector-curvature="0"/>
    <path id="path11" class="st0" d="M41.77,2.62C32.41-2.78,20.45.43,15.05,9.78c-2.02,3.51-2.84,7.38-2.58,11.13,2.22-.78,4.6-1.21,7.08-1.21h3.92c-.02-1.5.33-3.01,1.13-4.4,2.35-4.08,7.57-5.47,11.64-3.12,4.08,2.35,5.47,7.56,3.12,11.64l-3.94,6.84,3.19,5.52h6.38l3.94-6.84c5.4-9.36,2.2-21.32-7.16-26.72" inkscape:connector-curvature="0"/>
    <path id="path15" class="st0" d="M25.89,51.8l-1.96-3.4c-1.28.77-2.77,1.22-4.37,1.22-4.71,0-8.52-3.82-8.52-8.52s3.82-8.52,8.52-8.52h7.89l3.19-5.53-3.19-5.52h-7.89C8.75,21.53,0,30.3,0,41.1s8.76,19.56,19.56,19.56c4.05,0,7.8-1.23,10.92-3.33-1.79-1.53-3.35-3.38-4.59-5.53" inkscape:connector-curvature="0"/>
  </g>
</svg>